<svg width="45" height="45" viewBox="0 0 45 45" fill="none" xmlns="http://www.w3.org/2000/svg">
<path d="M22.5021 16.3125C20.861 16.3125 19.2872 16.9644 18.1268 18.1248C16.9665 19.2852 16.3146 20.859 16.3146 22.5C16.3146 24.141 16.9665 25.7148 18.1268 26.8752C19.2872 28.0356 20.861 28.6875 22.5021 28.6875C24.1431 28.6875 25.7169 28.0356 26.8773 26.8752C28.0377 25.7148 28.6896 24.141 28.6896 22.5C28.6896 20.859 28.0377 19.2852 26.8773 18.1248C25.7169 16.9644 24.1431 16.3125 22.5021 16.3125ZM22.5021 12.1875C25.2371 12.1875 27.8601 13.274 29.7941 15.208C31.7281 17.1419 32.8146 19.765 32.8146 22.5C32.8146 25.235 31.7281 27.8581 29.7941 29.792C27.8601 31.726 25.2371 32.8125 22.5021 32.8125C19.767 32.8125 17.144 31.726 15.21 29.792C13.2761 27.8581 12.1896 25.235 12.1896 22.5C12.1896 19.765 13.2761 17.1419 15.21 15.208C17.144 13.274 19.767 12.1875 22.5021 12.1875ZM35.9083 11.6719C35.9083 12.3556 35.6367 13.0114 35.1532 13.4949C34.6697 13.9784 34.0139 14.25 33.3302 14.25C32.6464 14.25 31.9907 13.9784 31.5072 13.4949C31.0237 13.0114 30.7521 12.3556 30.7521 11.6719C30.7521 10.9881 31.0237 10.3324 31.5072 9.84887C31.9907 9.36537 32.6464 9.09375 33.3302 9.09375C34.0139 9.09375 34.6697 9.36537 35.1532 9.84887C35.6367 10.3324 35.9083 10.9881 35.9083 11.6719ZM22.5021 6C17.3994 6 16.5662 6.01444 14.1923 6.11963C12.5753 6.19594 11.4904 6.4125 10.4839 6.80437C9.64203 7.11451 8.88074 7.61006 8.25637 8.25431C7.61138 8.87846 7.11511 9.63977 6.80437 10.4818C6.4125 11.4924 6.19594 12.5753 6.12169 14.1902C6.01444 16.4672 6 17.2633 6 22.5C6 27.6047 6.01444 28.4359 6.11963 30.8098C6.19594 32.4247 6.4125 33.5117 6.80231 34.5161C7.15294 35.4133 7.56544 36.0589 8.25019 36.7436C8.94525 37.4366 9.59081 37.8512 10.4777 38.1936C11.4966 38.5875 12.5814 38.8061 14.1902 38.8804C16.4672 38.9876 17.2633 39 22.5 39C27.6047 39 28.4359 38.9856 30.8098 38.8804C32.4227 38.8041 33.5076 38.5875 34.5161 38.1977C35.358 37.8875 36.1193 37.392 36.7436 36.7478C37.4387 36.0548 37.8533 35.4092 38.1956 34.5202C38.5875 33.5055 38.8061 32.4206 38.8804 30.8077C38.9876 28.5328 39 27.7346 39 22.5C39 17.3974 38.9856 16.5641 38.8804 14.1902C38.8041 12.5773 38.5854 11.4883 38.1956 10.4818C37.8855 9.63997 37.3899 8.87867 36.7457 8.25431C36.1215 7.60931 35.3602 7.11305 34.5182 6.80231C33.5076 6.41044 32.4227 6.19388 30.8098 6.11963C28.5349 6.01238 27.7387 6 22.5 6M22.5 1.875C28.1038 1.875 28.803 1.89562 31.0037 1.99875C33.1982 2.10187 34.6956 2.44631 36.0094 2.95781C37.3706 3.48169 38.5174 4.19119 39.6641 5.33587C40.7133 6.36657 41.5249 7.61385 42.0422 8.99062C42.5516 10.3044 42.8981 11.8018 43.0013 13.9984C43.0982 16.197 43.125 16.8962 43.125 22.5C43.125 28.1038 43.1044 28.803 43.0013 31.0016C42.8981 33.2002 42.5516 34.6935 42.0422 36.0094C41.5249 37.3861 40.7133 38.6334 39.6641 39.6641C38.6334 40.7133 37.3861 41.5249 36.0094 42.0422C34.6956 42.5516 33.1982 42.8981 31.0037 43.0013C28.803 43.0982 28.1038 43.125 22.5 43.125C16.8962 43.125 16.197 43.1044 13.9963 43.0013C11.8018 42.8981 10.3065 42.5516 8.99062 42.0422C7.61385 41.5249 6.36657 40.7133 5.33587 39.6641C4.28669 38.6334 3.47512 37.3861 2.95781 36.0094C2.44631 34.6956 2.10187 33.1982 1.99875 31.0016C1.89975 28.803 1.875 28.1038 1.875 22.5C1.875 16.8962 1.89562 16.197 1.99875 13.9984C2.10187 11.7997 2.44631 10.3065 2.95781 8.99062C3.47512 7.61385 4.28669 6.36657 5.33587 5.33587C6.36657 4.28669 7.61385 3.47512 8.99062 2.95781C10.3044 2.44631 11.7997 2.10187 13.9963 1.99875C16.1991 1.90181 16.8983 1.875 22.5021 1.875" fill="#8F704C"/>
</svg>
