<svg width="45" height="45" viewBox="0 0 45 45" fill="none" xmlns="http://www.w3.org/2000/svg">
<path d="M3.15 3.01875C7.66345e-07 6.06625 0 10.9394 0 20.7V22.425C0 32.1712 7.66345e-07 37.0444 3.15 40.1062C6.33 43.125 11.415 43.125 21.6 43.125H23.4C33.57 43.125 38.655 43.125 41.85 40.1062C45 37.0587 45 32.1856 45 22.425V20.7C45 10.9538 45 6.08063 41.85 3.01875C38.67 7.34414e-07 33.585 0 23.4 0H21.6C11.43 0 6.345 7.34414e-07 3.15 3.01875ZM7.59 13.1244H12.75C12.915 21.3469 16.695 24.8256 19.695 25.5444V13.1244H24.54V20.2112C27.495 19.9094 30.615 16.675 31.665 13.11H36.495C36.1009 14.9553 35.3141 16.703 34.1837 18.2438C33.0533 19.7847 31.6035 21.0857 29.925 22.0656C31.7986 22.959 33.4532 24.2229 34.7796 25.7741C36.106 27.3252 37.0741 29.1283 37.62 31.0644H32.295C31.155 27.6575 28.305 25.0125 24.54 24.6531V31.0644H23.94C13.68 31.0644 7.83 24.3369 7.59 13.1244Z" fill="#8F704C"/>
</svg>
